<svg id="Capa_1" enable-background="new 0 0 512 512" height="512" viewBox="0 0 512 512" width="512" xmlns="http://www.w3.org/2000/svg"><path d="m482.787 434.041c7.867 22.713 10.454 46.83-14.423 58.907-21.117 10.252-50.356 11.319-73.271 11.547-47.217.469-101.769-28.195-85.601-83.451 13.128-44.868 58.876-76.594 103.429-83.879 17.866-2.921 32.178-3.853 40.869 13.678 12.679 25.579 19.648 56.204 28.997 83.198z" fill="#5bd6ff"/><path d="m468.037 387.173c-1.823-5.615-1.343-11.75 1.52-16.913 42.07-75.888 40.505-171.408-5.165-245.951-83.606-136.46-280.418-155.332-388.541-37.445-134.286 146.412-40.136 388.154 155.413 407.831 51.058 5.138 101.805-6.268 145.253-30.888 6.986-3.958 15.695-2.404 21.038 3.589 14.981 16.807 40.095 26.333 64.695 28.188 2.103-.804 4.141-1.68 6.114-2.637 24.877-12.077 22.29-36.194 14.423-58.907-5.196-15.001-9.634-31.113-14.75-46.867z" fill="#a4e6ff"/><path d="m172.353 425.638c-25.141-38.19-43.467-81.146-55.846-125.083-6.152-21.836-10.785-44.102-13.93-66.568-3.305-23.609-6.039-47.677-5.416-71.556.997-38.221 9.516-75.19 20.28-111.577-14.874 10.125-28.847 22.118-41.588 36.009-134.172 146.287-40.298 387.734 154.908 407.777-22.047-20.595-41.672-43.579-58.408-69.002z" fill="#5bd6ff"/><ellipse cx="101.343" cy="185.612" fill="#fff" rx="29.355" ry="23.377"/><ellipse cx="260.456" cy="185.612" fill="#fff" rx="29.355" ry="23.377"/><path d="m473.165 379.002c22.588-38.479 34.507-82.388 34.507-127.283 0-67.237-26.184-130.449-73.727-177.993-47.266-47.264-111.15-73.726-177.994-73.726-67.236 0-130.448 26.184-177.991 73.727-45.86 45.86-71.846 106.299-73.629 170.866-.111 4.002 3.019 7.355 7.017 7.56l.209.011c4.167.213 7.654-3.061 7.771-7.231 1.704-60.961 26.352-118.004 69.822-161.182 44.396-44.096 104.229-68.751 166.803-68.751 63.23 0 122.675 24.623 167.386 69.333 44.71 44.71 69.333 104.156 69.333 167.386 0 42.361-11.279 83.785-32.653 120.048-2.194 3.722-2.39 8.723-1.107 12.759 4.238 13.331 14.322 44.987 16.74 51.969 9.26 26.734 6.086 41.599-10.612 49.705-18.663 9.061-44.707 10.542-70.07 10.794-17.48.163-34.342-3.685-48.067-10.507 15.76-6.106 30.934-13.813 45.292-23.072 3.229-2.082 4.63-6.235 2.96-9.695-2.004-4.151-7.099-5.491-10.844-3.069-38.231 24.721-82.618 37.788-128.36 37.788-63.23 0-122.675-24.623-167.386-69.333-38.685-38.684-62.553-89.215-68.085-143.126-.394-3.836-3.608-6.76-7.464-6.76-4.461 0-7.923 3.864-7.474 8.302 5.815 57.486 31.009 110.782 72.417 152.19 47.543 47.543 110.756 73.727 177.993 73.727 24.731 0 49.088-3.601 72.406-10.589 17.353 12.014 40.98 19.15 65.506 19.15.418 0 54.621 0 77.728-12.306 13.687-6.645 21.641-17.126 23.64-31.154 1.451-10.177-.317-22.265-5.405-36.955-2.991-8.632-13.774-44.05-16.662-52.583z"/><path d="m118.403 143.608c-4.142 0-7.5 3.358-7.5 7.5v12c0 4.142 3.358 7.5 7.5 7.5s7.5-3.358 7.5-7.5v-12c0-4.142-3.358-7.5-7.5-7.5z"/><path d="m243.3 143.608c-4.142 0-7.5 3.358-7.5 7.5v12c0 4.142 3.358 7.5 7.5 7.5s7.5-3.358 7.5-7.5v-12c0-4.142-3.357-7.5-7.5-7.5z"/><path d="m202.244 157.097c-3.123-2.721-7.861-2.396-10.582.727-2.729 3.132-6.669 4.928-10.81 4.928s-8.081-1.796-10.81-4.928c-2.722-3.123-7.459-3.447-10.582-.727-3.123 2.722-3.448 7.459-.727 10.582 5.579 6.401 13.641 10.073 22.119 10.073s16.54-3.671 22.119-10.073c2.721-3.123 2.395-7.861-.727-10.582z"/></svg>