<svg id="Layer_1" height="512" viewBox="0 0 32 32" width="512" xmlns="http://www.w3.org/2000/svg" data-name="Layer 1"><circle cx="16" cy="16" fill="currentColor" r="16"/><path d="m29.69 24.3a16.242 16.242 0 0 1 -5.41 5.4l-14.97-14.98 1.19-4.22 4.1-1.29z" fill="#2d8cda"/><g fill="#fff"><path d="m22 23a1 1 0 0 1 -.707-.293l-11.021-11.021a1 1 0 1 1 1.414-1.414l11.021 11.021a1.011 1.011 0 0 1 -.707 1.707z"/><path d="m10 15a1 1 0 0 1 -1-1v-4a1 1 0 0 1 1-1h4a1 1 0 0 1 0 2h-3v3a1 1 0 0 1 -1 1z"/></g></svg>